name Walk6.mot
datacolumns 19
datarows 27
range 2.14000000 2.16600000
endheader

                time	   L_ground_force_vx	   L_ground_force_vy	   L_ground_force_vz	   L_ground_force_px	   L_ground_force_py	   L_ground_force_pz	   R_ground_force_vx	   R_ground_force_vy	   R_ground_force_vz	   R_ground_force_px	   R_ground_force_py	   R_ground_force_pz	   L_ground_torque_x	   L_ground_torque_y	   L_ground_torque_z	   R_ground_torque_x	   R_ground_torque_y	   R_ground_torque_z	
          2.14000000	         -0.00070157	          0.04507481	          0.00168639	         -0.00009058	          0.00000000	         -0.00002622	        -12.70500941	        838.14493532	        -34.90538701	          0.48010218	          0.00000000	          0.12916800	          0.00000000	          0.00033649	          0.00000000	          0.00000000	         -0.48335110	          0.00000000	
          2.14100000	         -0.00189825	          0.04067072	          0.00185407	         -0.00008640	          0.00000000	         -0.00002542	        -12.20229880	        836.30657501	        -34.78596908	          0.48027964	          0.00000000	          0.12925233	          0.00000000	          0.00031733	          0.00000000	          0.00000000	         -0.56449238	          0.00000000	
          2.14200000	         -0.00298601	          0.03648740	          0.00200049	         -0.00008225	          0.00000000	         -0.00002459	        -11.70510432	        834.49925627	        -34.66425731	          0.48045713	          0.00000000	          0.12933574	          0.00000000	          0.00029860	          0.00000000	          0.00000000	         -0.64492239	          0.00000000	
          2.14300000	         -0.00397001	          0.03252189	          0.00212690	         -0.00007815	          0.00000000	         -0.00002375	        -11.21338539	        832.72318932	        -34.54066968	          0.48063476	          0.00000000	          0.12941826	          0.00000000	          0.00028033	          0.00000000	          0.00000000	         -0.72464459	          0.00000000	
          2.14400000	         -0.00485534	          0.02877064	          0.00223452	         -0.00007410	          0.00000000	         -0.00002288	        -10.72710035	        830.97860527	        -34.41562152	          0.48081262	          0.00000000	          0.12949992	          0.00000000	          0.00026256	          0.00000000	          0.00000000	         -0.80366310	          0.00000000	
          2.14500000	         -0.00564704	          0.02522963	          0.00232455	         -0.00007011	          0.00000000	         -0.00002200	        -10.24620540	        829.26575605	        -34.28952408	          0.48099079	          0.00000000	          0.12958077	          0.00000000	          0.00024530	          0.00000000	          0.00000000	         -0.88198273	          0.00000000	
          2.14600000	         -0.00635010	          0.02189435	          0.00239814	         -0.00006620	          0.00000000	         -0.00002111	         -9.77065340	        827.58491428	        -34.16278310	          0.48116935	          0.00000000	          0.12966083	          0.00000000	          0.00022859	          0.00000000	          0.00000000	         -0.95960905	          0.00000000	
          2.14700000	         -0.00696938	          0.01875992	          0.00245641	         -0.00006237	          0.00000000	         -0.00002022	         -9.30039270	        825.93637260	        -34.03579770	          0.48134841	          0.00000000	          0.12974014	          0.00000000	          0.00021243	          0.00000000	          0.00000000	         -1.03654826	          0.00000000	
          2.14800000	         -0.00750967	          0.01582110	          0.00250045	         -0.00005863	          0.00000000	         -0.00001933	         -8.83536624	        824.32044235	        -33.90895914	          0.48152805	          0.00000000	          0.12981874	          0.00000000	          0.00019685	          0.00000000	          0.00000000	         -1.11280718	          0.00000000	
          2.14900000	         -0.00797565	          0.01307237	          0.00253129	         -0.00005499	          0.00000000	         -0.00001844	         -8.37551104	        822.73745136	        -33.78264984	          0.48170837	          0.00000000	          0.12989667	          0.00000000	          0.00018184	          0.00000000	          0.00000000	         -1.18839323	          0.00000000	
          2.15000000	         -0.00837187	          0.01050794	          0.00254994	         -0.00005144	          0.00000000	         -0.00001756	         -7.92075800	        821.18774041	        -33.65724227	          0.48188944	          0.00000000	          0.12997398	          0.00000000	          0.00016743	          0.00000000	          0.00000000	         -1.26331446	          0.00000000	
          2.15100000	         -0.00870276	          0.00812185	          0.00255738	         -0.00004801	          0.00000000	         -0.00001668	         -7.47103209	        819.67165818	        -33.53309801	          0.48207139	          0.00000000	          0.13005070	          0.00000000	          0.00015361	          0.00000000	          0.00000000	         -1.33757959	          0.00000000	
          2.15200000	         -0.00897264	          0.00590795	          0.00255451	         -0.00004469	          0.00000000	         -0.00001582	         -7.02625266	        818.18955494	        -33.41056698	          0.48225428	          0.00000000	          0.13012687	          0.00000000	          0.00014038	          0.00000000	          0.00000000	         -1.41119808	          0.00000000	
          2.15300000	         -0.00918567	          0.00385995	          0.00254224	         -0.00004147	          0.00000000	         -0.00001497	         -6.58633386	        816.74177625	        -33.28998686	          0.48243823	          0.00000000	          0.13020253	          0.00000000	          0.00012774	          0.00000000	          0.00000000	         -1.48418017	          0.00000000	
          2.15400000	         -0.00934587	          0.00197150	          0.00252141	         -0.00003838	          0.00000000	         -0.00001413	         -6.15118516	        815.32865773	        -33.17168263	          0.48262332	          0.00000000	          0.13027772	          0.00000000	          0.00011570	          0.00000000	          0.00000000	         -1.55653691	          0.00000000	
          2.15500000	         -0.00945713	          0.00023616	          0.00249281	         -0.00003540	          0.00000000	         -0.00001332	         -5.72071189	        813.95052180	        -33.05596622	          0.48280963	          0.00000000	          0.13035248	          0.00000000	          0.00010425	          0.00000000	          0.00000000	         -1.62828016	          0.00000000	
          2.15600000	         -0.00952320	         -0.00135253	          0.00245723	         -0.00003255	          0.00000000	         -0.00001252	         -5.29481596	        812.60767600	        -32.94313600	          0.48299727	          0.00000000	          0.13042684	          0.00000000	          0.00009337	          0.00000000	          0.00000000	         -1.69942259	          0.00000000	
          2.15700000	         -0.00954767	         -0.00280102	          0.00241539	         -0.00002981	          0.00000000	         -0.00001174	         -4.87339655	        811.30041222	        -32.83347650	          0.48318630	          0.00000000	          0.13050084	          0.00000000	          0.00008307	          0.00000000	          0.00000000	         -1.76997757	          0.00000000	
          2.15800000	         -0.00953397	         -0.00411578	          0.00236798	         -0.00002719	          0.00000000	         -0.00001099	         -4.45635081	        810.02900589	        -32.72725807	          0.48337683	          0.00000000	          0.13057449	          0.00000000	          0.00007333	          0.00000000	          0.00000000	         -1.83995909	          0.00000000	
          2.15900000	         -0.00948542	         -0.00530320	          0.00231566	         -0.00002470	          0.00000000	         -0.00001026	         -4.04357458	        808.79371475	        -32.62473665	          0.48356892	          0.00000000	          0.13064784	          0.00000000	          0.00006414	          0.00000000	          0.00000000	         -1.90938160	          0.00000000	
          2.16000000	         -0.00940515	         -0.00636961	          0.00225903	         -0.00002232	          0.00000000	         -0.00000955	         -3.63496294	        807.59477757	        -32.52615348	          0.48376266	          0.00000000	          0.13072090	          0.00000000	          0.00005548	          0.00000000	          0.00000000	         -1.97825979	          0.00000000	
          2.16100000	         -0.00929616	         -0.00732129	          0.00219868	         -0.00002006	          0.00000000	         -0.00000886	         -3.23041064	        806.43241336	        -32.43173482	          0.48395812	          0.00000000	          0.13079368	          0.00000000	          0.00004736	          0.00000000	          0.00000000	         -2.04660834	          0.00000000	
          2.16200000	         -0.00916131	         -0.00816439	          0.00213515	         -0.00001791	          0.00000000	         -0.00000820	         -2.82981246	        805.30682166	        -32.34169150	          0.48415537	          0.00000000	          0.13086622	          0.00000000	          0.00003975	          0.00000000	          0.00000000	         -2.11444177	          0.00000000	
          2.16300000	         -0.00900331	         -0.00890495	          0.00206896	         -0.00001588	          0.00000000	         -0.00000757	         -2.43306334	        804.21818402	        -32.25621869	          0.48435449	          0.00000000	          0.13093852	          0.00000000	          0.00003263	          0.00000000	          0.00000000	         -2.18177427	          0.00000000	
          2.16400000	         -0.00882473	         -0.00954890	          0.00200057	         -0.00001397	          0.00000000	         -0.00000696	         -2.04005856	        803.16666616	        -32.17549583	          0.48455553	          0.00000000	          0.13101059	          0.00000000	          0.00002600	          0.00000000	          0.00000000	         -2.24861969	          0.00000000	
          2.16500000	         -0.00862798	         -0.01010201	          0.00193044	         -0.00001216	          0.00000000	         -0.00000637	         -1.65069392	        802.15241971	        -32.09968682	          0.48475857	          0.00000000	          0.13108246	          0.00000000	          0.00001983	          0.00000000	          0.00000000	         -2.31499162	          0.00000000	
          2.16600000	         -0.00841535	         -0.01056992	          0.00185898	         -0.00001046	          0.00000000	         -0.00000581	         -1.26486614	        801.17558322	        -32.02894042	          0.48496364	          0.00000000	          0.13115412	          0.00000000	          0.00001411	          0.00000000	          0.00000000	         -2.38090357	          0.00000000	
